<mxfile host="app.diagrams.net" modified="2024-07-22T04:25:40.837Z" agent="Mozilla/5.0 (X11; Ubuntu; Linux x86_64; rv:125.0) Gecko/20100101 Firefox/125.0" etag="XOGdudRNsnk41b6JorkU" version="24.7.1" type="github">
  <diagram name="Page-1" id="nr04e7j_lgrhqmW4x8mc">
    <mxGraphModel dx="1434" dy="778" grid="1" gridSize="10" guides="1" tooltips="1" connect="1" arrows="1" fold="1" page="1" pageScale="1" pageWidth="850" pageHeight="1100" math="0" shadow="0">
      <root>
        <mxCell id="0" />
        <mxCell id="1" parent="0" />
        <mxCell id="aT8a2JC3UvmOd2hiil9d-5" style="edgeStyle=orthogonalEdgeStyle;rounded=1;orthogonalLoop=1;jettySize=auto;html=1;exitX=0.467;exitY=0.991;exitDx=0;exitDy=0;entryX=0.503;entryY=0.034;entryDx=0;entryDy=0;fontStyle=0;entryPerimeter=0;strokeWidth=2;exitPerimeter=0;" parent="1" source="aT8a2JC3UvmOd2hiil9d-2" target="aT8a2JC3UvmOd2hiil9d-14" edge="1">
          <mxGeometry relative="1" as="geometry">
            <mxPoint x="390" y="260" as="targetPoint" />
            <Array as="points">
              <mxPoint x="389" y="240" />
              <mxPoint x="340" y="240" />
            </Array>
          </mxGeometry>
        </mxCell>
        <mxCell id="aT8a2JC3UvmOd2hiil9d-2" value="Initiate LoRa Radio&lt;br style=&quot;font-size: 14px;&quot;&gt;in Listening mode&lt;div style=&quot;font-size: 14px;&quot;&gt;using&lt;/div&gt;&lt;div style=&quot;font-size: 14px;&quot;&gt;Preconfigured Parameters&lt;br&gt;&lt;/div&gt;" style="rounded=1;whiteSpace=wrap;html=1;arcSize=0;fillColor=#dae8fc;strokeColor=#6c8ebf;fontStyle=0;fontSize=14;strokeWidth=2;" parent="1" vertex="1">
          <mxGeometry x="310" y="150" width="170" height="71" as="geometry" />
        </mxCell>
        <mxCell id="aT8a2JC3UvmOd2hiil9d-18" style="edgeStyle=orthogonalEdgeStyle;rounded=1;orthogonalLoop=1;jettySize=auto;html=1;entryX=0.023;entryY=0.504;entryDx=0;entryDy=0;fontStyle=0;exitX=0.967;exitY=0.496;exitDx=0;exitDy=0;exitPerimeter=0;entryPerimeter=0;strokeWidth=2;" parent="1" edge="1">
          <mxGeometry relative="1" as="geometry">
            <mxPoint x="396.99999999999994" y="348.53999999999996" as="sourcePoint" />
            <mxPoint x="453.71999999999997" y="348.5" as="targetPoint" />
          </mxGeometry>
        </mxCell>
        <mxCell id="aT8a2JC3UvmOd2hiil9d-23" value="No" style="edgeLabel;html=1;align=center;verticalAlign=middle;resizable=0;points=[];rounded=1;fontStyle=1;fontColor=#CC0000;fontSize=15;labelBackgroundColor=none;" parent="aT8a2JC3UvmOd2hiil9d-18" vertex="1" connectable="0">
          <mxGeometry x="-0.2476" y="2" relative="1" as="geometry">
            <mxPoint x="-4" y="-8" as="offset" />
          </mxGeometry>
        </mxCell>
        <mxCell id="aT8a2JC3UvmOd2hiil9d-20" style="edgeStyle=orthogonalEdgeStyle;rounded=1;orthogonalLoop=1;jettySize=auto;html=1;fontStyle=0;exitX=0.027;exitY=0.505;exitDx=0;exitDy=0;exitPerimeter=0;strokeWidth=2;" parent="1" source="aT8a2JC3UvmOd2hiil9d-14" target="aT8a2JC3UvmOd2hiil9d-19" edge="1">
          <mxGeometry relative="1" as="geometry">
            <Array as="points">
              <mxPoint x="255" y="351" />
            </Array>
          </mxGeometry>
        </mxCell>
        <mxCell id="aT8a2JC3UvmOd2hiil9d-22" value="Yes" style="edgeLabel;html=1;align=center;verticalAlign=middle;resizable=0;points=[];rounded=1;fontStyle=1;fontColor=#66CC00;fontSize=15;labelBackgroundColor=none;" parent="aT8a2JC3UvmOd2hiil9d-20" vertex="1" connectable="0">
          <mxGeometry x="-0.5878" y="1" relative="1" as="geometry">
            <mxPoint x="-5" y="-12" as="offset" />
          </mxGeometry>
        </mxCell>
        <mxCell id="aT8a2JC3UvmOd2hiil9d-14" value="Earthquake&lt;br style=&quot;font-size: 14px;&quot;&gt;Detected?" style="rhombus;whiteSpace=wrap;html=1;rounded=1;fillColor=#f8cecc;strokeColor=#b85450;fontStyle=0;fontSize=14;strokeWidth=2;" parent="1" vertex="1">
          <mxGeometry x="280" y="290" width="120" height="120" as="geometry" />
        </mxCell>
        <mxCell id="PVOLsWm9la5_ibdRfDDH-19" value="" style="edgeStyle=orthogonalEdgeStyle;rounded=1;orthogonalLoop=1;jettySize=auto;html=1;strokeWidth=2;curved=0;entryX=0.046;entryY=0.492;entryDx=0;entryDy=0;entryPerimeter=0;exitX=0.958;exitY=0.492;exitDx=0;exitDy=0;exitPerimeter=0;fontStyle=0" parent="1" source="aT8a2JC3UvmOd2hiil9d-16" target="aT8a2JC3UvmOd2hiil9d-48" edge="1">
          <mxGeometry relative="1" as="geometry" />
        </mxCell>
        <mxCell id="aT8a2JC3UvmOd2hiil9d-19" value="Transmit&lt;br style=&quot;font-size: 14px;&quot;&gt;Warning" style="rounded=0;whiteSpace=wrap;html=1;fontStyle=0;fontSize=14;strokeWidth=2;" parent="1" vertex="1">
          <mxGeometry x="170" y="320" width="70" height="60" as="geometry" />
        </mxCell>
        <mxCell id="aT8a2JC3UvmOd2hiil9d-16" value="Packet&amp;nbsp;&lt;div&gt;Received?&lt;/div&gt;" style="rhombus;whiteSpace=wrap;html=1;rounded=1;fillColor=#f8cecc;strokeColor=#b85450;fontStyle=0;fontSize=14;strokeWidth=2;" parent="1" vertex="1">
          <mxGeometry x="450" y="289" width="120" height="120" as="geometry" />
        </mxCell>
        <mxCell id="aT8a2JC3UvmOd2hiil9d-28" style="edgeStyle=orthogonalEdgeStyle;rounded=1;orthogonalLoop=1;jettySize=auto;html=1;entryX=1;entryY=0.5;entryDx=0;entryDy=0;fontStyle=1;strokeWidth=2;exitX=0.065;exitY=0.519;exitDx=0;exitDy=0;exitPerimeter=0;" parent="1" source="aT8a2JC3UvmOd2hiil9d-24" edge="1">
          <mxGeometry relative="1" as="geometry">
            <mxPoint x="140" y="250" as="targetPoint" />
            <Array as="points">
              <mxPoint x="301" y="607" />
              <mxPoint x="140" y="607" />
            </Array>
            <mxPoint x="380" y="500" as="sourcePoint" />
          </mxGeometry>
        </mxCell>
        <mxCell id="aT8a2JC3UvmOd2hiil9d-29" value="Warning&lt;br style=&quot;font-size: 15px;&quot;&gt;Message" style="edgeLabel;html=1;align=center;verticalAlign=middle;resizable=0;points=[];rounded=1;labelBackgroundColor=none;fontColor=#0000CC;fontStyle=0;fontSize=15;" parent="aT8a2JC3UvmOd2hiil9d-28" vertex="1" connectable="0">
          <mxGeometry x="-0.2422" y="-1" relative="1" as="geometry">
            <mxPoint x="99" y="15" as="offset" />
          </mxGeometry>
        </mxCell>
        <mxCell id="aT8a2JC3UvmOd2hiil9d-33" style="edgeStyle=orthogonalEdgeStyle;rounded=1;orthogonalLoop=1;jettySize=auto;html=1;fontStyle=1;exitX=0.978;exitY=0.501;exitDx=0;exitDy=0;exitPerimeter=0;strokeWidth=2;entryX=0.005;entryY=0.565;entryDx=0;entryDy=0;entryPerimeter=0;" parent="1" source="aT8a2JC3UvmOd2hiil9d-24" target="aT8a2JC3UvmOd2hiil9d-32" edge="1">
          <mxGeometry relative="1" as="geometry">
            <mxPoint x="609.5" y="611" as="targetPoint" />
          </mxGeometry>
        </mxCell>
        <mxCell id="aT8a2JC3UvmOd2hiil9d-36" value="Health&lt;br style=&quot;font-size: 15px;&quot;&gt;Check" style="edgeLabel;html=1;align=center;verticalAlign=middle;resizable=0;points=[];rounded=1;labelBackgroundColor=none;fontColor=#0000CC;fontStyle=0;fontSize=15;" parent="aT8a2JC3UvmOd2hiil9d-33" vertex="1" connectable="0">
          <mxGeometry x="-0.4476" relative="1" as="geometry">
            <mxPoint x="-13" y="-20" as="offset" />
          </mxGeometry>
        </mxCell>
        <mxCell id="aT8a2JC3UvmOd2hiil9d-40" style="edgeStyle=orthogonalEdgeStyle;rounded=1;orthogonalLoop=1;jettySize=auto;html=1;entryX=0;entryY=0.5;entryDx=0;entryDy=0;fontStyle=1;exitX=0.501;exitY=0.967;exitDx=0;exitDy=0;exitPerimeter=0;strokeWidth=2;" parent="1" source="aT8a2JC3UvmOd2hiil9d-24" target="aT8a2JC3UvmOd2hiil9d-39" edge="1">
          <mxGeometry relative="1" as="geometry">
            <Array as="points">
              <mxPoint x="353" y="700" />
              <mxPoint x="454" y="700" />
            </Array>
          </mxGeometry>
        </mxCell>
        <mxCell id="aT8a2JC3UvmOd2hiil9d-41" value="Configuration&amp;nbsp;&lt;div style=&quot;font-size: 15px;&quot;&gt;packet&lt;/div&gt;" style="edgeLabel;html=1;align=left;verticalAlign=middle;resizable=0;points=[];rounded=1;labelBackgroundColor=none;fontColor=#0000CC;fontStyle=0;fontSize=15;" parent="aT8a2JC3UvmOd2hiil9d-40" vertex="1" connectable="0">
          <mxGeometry x="-0.2229" y="-2" relative="1" as="geometry">
            <mxPoint x="-18" y="-2" as="offset" />
          </mxGeometry>
        </mxCell>
        <mxCell id="aT8a2JC3UvmOd2hiil9d-24" value="What is the&amp;nbsp;&lt;div style=&quot;font-size: 14px;&quot;&gt;Packet type?&lt;/div&gt;" style="rhombus;whiteSpace=wrap;html=1;rounded=1;fillColor=#f8cecc;strokeColor=#b85450;fontStyle=0;fontSize=14;strokeWidth=2;" parent="1" vertex="1">
          <mxGeometry x="293" y="547" width="120" height="120" as="geometry" />
        </mxCell>
        <mxCell id="aT8a2JC3UvmOd2hiil9d-31" style="edgeStyle=orthogonalEdgeStyle;rounded=1;orthogonalLoop=1;jettySize=auto;html=1;fontStyle=1;strokeWidth=2;exitX=0.456;exitY=0.017;exitDx=0;exitDy=0;exitPerimeter=0;" parent="1" source="aT8a2JC3UvmOd2hiil9d-30" edge="1">
          <mxGeometry relative="1" as="geometry">
            <mxPoint x="310" y="190" as="targetPoint" />
            <mxPoint x="80" y="230" as="sourcePoint" />
            <Array as="points">
              <mxPoint x="131" y="230" />
              <mxPoint x="130" y="230" />
              <mxPoint x="130" y="190" />
            </Array>
          </mxGeometry>
        </mxCell>
        <mxCell id="aT8a2JC3UvmOd2hiil9d-30" value="Activate local alarms" style="rounded=1;whiteSpace=wrap;html=1;fontStyle=0;fontSize=14;strokeWidth=2;" parent="1" vertex="1">
          <mxGeometry x="90" y="221" width="90" height="60" as="geometry" />
        </mxCell>
        <mxCell id="aT8a2JC3UvmOd2hiil9d-32" value="Schedule a packet" style="rounded=0;whiteSpace=wrap;html=1;fontStyle=0;fontSize=14;strokeWidth=2;" parent="1" vertex="1">
          <mxGeometry x="609.5" y="574" width="97" height="60" as="geometry" />
        </mxCell>
        <mxCell id="aT8a2JC3UvmOd2hiil9d-42" style="edgeStyle=orthogonalEdgeStyle;rounded=1;orthogonalLoop=1;jettySize=auto;html=1;entryX=0.5;entryY=1;entryDx=0;entryDy=0;fontStyle=1;strokeWidth=2;" parent="1" source="aT8a2JC3UvmOd2hiil9d-39" target="aT8a2JC3UvmOd2hiil9d-32" edge="1">
          <mxGeometry relative="1" as="geometry">
            <mxPoint x="658" y="641" as="targetPoint" />
          </mxGeometry>
        </mxCell>
        <mxCell id="aT8a2JC3UvmOd2hiil9d-39" value="Configuration&lt;div style=&quot;font-size: 14px;&quot;&gt;parameters&lt;/div&gt;" style="rounded=0;whiteSpace=wrap;html=1;fontStyle=0;fontSize=14;strokeWidth=2;" parent="1" vertex="1">
          <mxGeometry x="458.5" y="670" width="120" height="60" as="geometry" />
        </mxCell>
        <mxCell id="aT8a2JC3UvmOd2hiil9d-62" value="" style="edgeStyle=orthogonalEdgeStyle;rounded=1;orthogonalLoop=1;jettySize=auto;html=1;strokeColor=default;align=center;verticalAlign=middle;fontFamily=Helvetica;fontSize=11;fontColor=default;labelBackgroundColor=default;endArrow=classic;strokeWidth=2;" parent="1" source="aT8a2JC3UvmOd2hiil9d-44" edge="1">
          <mxGeometry relative="1" as="geometry">
            <mxPoint x="404.7533444816054" y="129" as="sourcePoint" />
            <mxPoint x="404.75" y="150" as="targetPoint" />
          </mxGeometry>
        </mxCell>
        <mxCell id="aT8a2JC3UvmOd2hiil9d-44" value="Start" style="rounded=1;whiteSpace=wrap;html=1;arcSize=50;fontStyle=0;fontSize=14;strokeWidth=2;" parent="1" vertex="1">
          <mxGeometry x="345" y="61" width="120" height="60" as="geometry" />
        </mxCell>
        <mxCell id="PVOLsWm9la5_ibdRfDDH-25" style="edgeStyle=orthogonalEdgeStyle;rounded=1;orthogonalLoop=1;jettySize=auto;html=1;exitX=0.5;exitY=0.06;exitDx=0;exitDy=0;entryX=0.5;entryY=1;entryDx=0;entryDy=0;curved=0;strokeWidth=2;exitPerimeter=0;fontStyle=0" parent="1" target="aT8a2JC3UvmOd2hiil9d-53" edge="1">
          <mxGeometry relative="1" as="geometry">
            <mxPoint x="658.0000000000002" y="313.76" as="sourcePoint" />
          </mxGeometry>
        </mxCell>
        <mxCell id="1XFwvakkwBoAosKU2_6U-1" style="edgeStyle=orthogonalEdgeStyle;shape=connector;rounded=1;orthogonalLoop=1;jettySize=auto;html=1;exitX=1;exitY=0.5;exitDx=0;exitDy=0;strokeColor=default;strokeWidth=2;align=center;verticalAlign=middle;fontFamily=Helvetica;fontSize=11;fontColor=default;fontStyle=1;labelBackgroundColor=default;endArrow=classic;flowAnimation=0;curved=0;" parent="1" source="aT8a2JC3UvmOd2hiil9d-48" target="aT8a2JC3UvmOd2hiil9d-2" edge="1">
          <mxGeometry relative="1" as="geometry">
            <Array as="points">
              <mxPoint x="730" y="349" />
              <mxPoint x="730" y="170" />
            </Array>
          </mxGeometry>
        </mxCell>
        <mxCell id="aT8a2JC3UvmOd2hiil9d-48" value="Scheduled&lt;br style=&quot;font-size: 14px;&quot;&gt;conditions met?" style="rhombus;whiteSpace=wrap;html=1;rounded=1;fillColor=#f8cecc;strokeColor=#b85450;fontStyle=0;fontSize=14;strokeWidth=2;" parent="1" vertex="1">
          <mxGeometry x="594.5" y="288.5" width="127" height="121" as="geometry" />
        </mxCell>
        <mxCell id="aT8a2JC3UvmOd2hiil9d-56" style="edgeStyle=orthogonalEdgeStyle;rounded=0;orthogonalLoop=1;jettySize=auto;html=1;entryX=1;entryY=0.5;entryDx=0;entryDy=0;flowAnimation=0;fontStyle=1;strokeWidth=2;" parent="1" edge="1">
          <mxGeometry relative="1" as="geometry">
            <mxPoint x="598" y="200.0000000000001" as="sourcePoint" />
            <mxPoint x="480" y="200" as="targetPoint" />
          </mxGeometry>
        </mxCell>
        <mxCell id="aT8a2JC3UvmOd2hiil9d-53" value="Transmit the&lt;br style=&quot;font-size: 14px;&quot;&gt;Scheduled&lt;br style=&quot;font-size: 14px;&quot;&gt;packet" style="rounded=0;whiteSpace=wrap;html=1;fontStyle=0;fontSize=14;strokeWidth=2;" parent="1" vertex="1">
          <mxGeometry x="598" y="179" width="120" height="60" as="geometry" />
        </mxCell>
        <mxCell id="aT8a2JC3UvmOd2hiil9d-61" value="Yes" style="edgeLabel;html=1;align=center;verticalAlign=middle;resizable=0;points=[];fontStyle=1;fontColor=#66CC00;fontSize=15;labelBackgroundColor=none;" parent="1" vertex="1" connectable="0">
          <mxGeometry x="657.0014814814813" y="268.997037037037" as="geometry">
            <mxPoint x="-16" as="offset" />
          </mxGeometry>
        </mxCell>
        <mxCell id="PVOLsWm9la5_ibdRfDDH-7" value="" style="endArrow=classic;html=1;rounded=1;exitX=0;exitY=0.5;exitDx=0;exitDy=0;curved=0;strokeWidth=2;fontStyle=0" parent="1" source="aT8a2JC3UvmOd2hiil9d-19" edge="1">
          <mxGeometry width="50" height="50" relative="1" as="geometry">
            <mxPoint x="220" y="240" as="sourcePoint" />
            <mxPoint x="140" y="350" as="targetPoint" />
          </mxGeometry>
        </mxCell>
        <mxCell id="PVOLsWm9la5_ibdRfDDH-18" value="&lt;b&gt;No&lt;/b&gt;" style="edgeLabel;html=1;align=center;verticalAlign=middle;resizable=0;points=[];rounded=1;fontStyle=0;fontColor=#CC0000;fontSize=15;labelBackgroundColor=none;" parent="1" connectable="0" vertex="1">
          <mxGeometry x="429.9985843411175" y="349.99519091004254" as="geometry">
            <mxPoint x="149" y="-15" as="offset" />
          </mxGeometry>
        </mxCell>
        <mxCell id="xMT419_eGAwAGplKJhdd-25" value="" style="edgeStyle=orthogonalEdgeStyle;rounded=0;orthogonalLoop=1;jettySize=auto;html=1;" parent="1" source="xMT419_eGAwAGplKJhdd-1" target="xMT419_eGAwAGplKJhdd-21" edge="1">
          <mxGeometry relative="1" as="geometry" />
        </mxCell>
        <mxCell id="xMT419_eGAwAGplKJhdd-1" value="&lt;div&gt;Packet&amp;nbsp;&lt;/div&gt;&lt;div&gt;Correct?&lt;/div&gt;" style="rhombus;whiteSpace=wrap;html=1;rounded=1;fillColor=#f8cecc;strokeColor=#b85450;fontStyle=0;fontSize=14;strokeWidth=2;" parent="1" vertex="1">
          <mxGeometry x="380" y="446" width="120" height="120" as="geometry" />
        </mxCell>
        <mxCell id="xMT419_eGAwAGplKJhdd-10" style="edgeStyle=orthogonalEdgeStyle;rounded=1;orthogonalLoop=1;jettySize=auto;html=1;fontStyle=1;strokeWidth=2;entryX=0.503;entryY=0.032;entryDx=0;entryDy=0;entryPerimeter=0;" parent="1" target="aT8a2JC3UvmOd2hiil9d-24" edge="1">
          <mxGeometry relative="1" as="geometry">
            <Array as="points">
              <mxPoint x="353" y="506" />
            </Array>
            <mxPoint x="383" y="506" as="sourcePoint" />
            <mxPoint x="353" y="576" as="targetPoint" />
          </mxGeometry>
        </mxCell>
        <mxCell id="xMT419_eGAwAGplKJhdd-11" value="Yes" style="edgeLabel;html=1;align=center;verticalAlign=middle;resizable=0;points=[];rounded=1;fontStyle=1;fontColor=#66CC00;fontSize=15;labelBackgroundColor=none;" parent="xMT419_eGAwAGplKJhdd-10" vertex="1" connectable="0">
          <mxGeometry x="-0.5878" y="1" relative="1" as="geometry">
            <mxPoint x="-5" y="-12" as="offset" />
          </mxGeometry>
        </mxCell>
        <mxCell id="xMT419_eGAwAGplKJhdd-17" value="" style="endArrow=classic;html=1;rounded=1;exitX=0.5;exitY=0;exitDx=0;exitDy=0;entryX=0.494;entryY=0.962;entryDx=0;entryDy=0;entryPerimeter=0;curved=0;strokeWidth=2;" parent="1" source="aT8a2JC3UvmOd2hiil9d-32" target="aT8a2JC3UvmOd2hiil9d-48" edge="1">
          <mxGeometry width="50" height="50" relative="1" as="geometry">
            <mxPoint x="659" y="517" as="sourcePoint" />
            <mxPoint x="656.968" y="378.539" as="targetPoint" />
          </mxGeometry>
        </mxCell>
        <mxCell id="xMT419_eGAwAGplKJhdd-18" value="" style="endArrow=classic;html=1;rounded=1;exitX=0.5;exitY=0.975;exitDx=0;exitDy=0;curved=0;strokeWidth=2;entryX=0.5;entryY=0;entryDx=0;entryDy=0;exitPerimeter=0;" parent="1" source="aT8a2JC3UvmOd2hiil9d-16" edge="1">
          <mxGeometry width="50" height="50" relative="1" as="geometry">
            <mxPoint x="510" y="414" as="sourcePoint" />
            <mxPoint x="440" y="451" as="targetPoint" />
            <Array as="points">
              <mxPoint x="510" y="426" />
              <mxPoint x="440" y="426" />
            </Array>
          </mxGeometry>
        </mxCell>
        <mxCell id="xMT419_eGAwAGplKJhdd-20" value="Yes" style="edgeLabel;html=1;align=center;verticalAlign=middle;resizable=0;points=[];rounded=1;fontStyle=1;fontColor=#66CC00;fontSize=15;labelBackgroundColor=none;" parent="1" vertex="1" connectable="0">
          <mxGeometry x="480" y="440" as="geometry">
            <mxPoint x="-1" y="1" as="offset" />
          </mxGeometry>
        </mxCell>
        <mxCell id="xMT419_eGAwAGplKJhdd-21" value="Discard packet" style="rounded=0;whiteSpace=wrap;html=1;fontStyle=0;fontSize=14;strokeWidth=2;" parent="1" vertex="1">
          <mxGeometry x="530" y="476" width="97" height="60" as="geometry" />
        </mxCell>
        <mxCell id="xMT419_eGAwAGplKJhdd-22" value="" style="endArrow=classic;html=1;rounded=1;entryX=0;entryY=0.5;entryDx=0;entryDy=0;curved=0;strokeWidth=2;exitX=0.969;exitY=0.501;exitDx=0;exitDy=0;exitPerimeter=0;" parent="1" source="xMT419_eGAwAGplKJhdd-1" target="xMT419_eGAwAGplKJhdd-21" edge="1">
          <mxGeometry width="50" height="50" relative="1" as="geometry">
            <mxPoint x="500" y="506" as="sourcePoint" />
            <mxPoint x="470" y="516" as="targetPoint" />
          </mxGeometry>
        </mxCell>
        <mxCell id="xMT419_eGAwAGplKJhdd-23" value="" style="endArrow=classic;html=1;rounded=1;entryX=0;entryY=0.5;entryDx=0;entryDy=0;exitX=1;exitY=0.5;exitDx=0;exitDy=0;curved=0;strokeWidth=2;" parent="1" edge="1">
          <mxGeometry width="50" height="50" relative="1" as="geometry">
            <mxPoint x="627" y="505.5" as="sourcePoint" />
            <mxPoint x="657" y="505.5" as="targetPoint" />
          </mxGeometry>
        </mxCell>
        <mxCell id="xMT419_eGAwAGplKJhdd-24" value="No" style="edgeLabel;html=1;align=center;verticalAlign=middle;resizable=0;points=[];rounded=1;fontStyle=1;fontColor=#CC0000;fontSize=15;labelBackgroundColor=none;" parent="1" vertex="1" connectable="0">
          <mxGeometry x="507.9985843411175" y="491.5251909100425" as="geometry" />
        </mxCell>
        <mxCell id="iCfGl1xUMJOLYQ3UmWG8-1" value="&lt;b&gt;No&lt;/b&gt;" style="edgeLabel;html=1;align=center;verticalAlign=middle;resizable=0;points=[];rounded=1;fontStyle=0;fontColor=#CC0000;fontSize=15;labelBackgroundColor=none;" parent="1" connectable="0" vertex="1">
          <mxGeometry x="567.9985843411175" y="288.49519091004254" as="geometry">
            <mxPoint x="149" y="-15" as="offset" />
          </mxGeometry>
        </mxCell>
        <mxCell id="5e5JNWEMtE15wkdzbp1a-5" style="edgeStyle=orthogonalEdgeStyle;rounded=1;orthogonalLoop=1;jettySize=auto;html=1;entryX=0.5;entryY=0;entryDx=0;entryDy=0;strokeColor=default;strokeWidth=2;align=center;verticalAlign=middle;fontFamily=Helvetica;fontSize=11;fontColor=default;labelBackgroundColor=default;endArrow=classic;" edge="1" parent="1" source="5e5JNWEMtE15wkdzbp1a-6" target="5e5JNWEMtE15wkdzbp1a-9">
          <mxGeometry relative="1" as="geometry">
            <Array as="points">
              <mxPoint x="235" y="1260" />
              <mxPoint x="235" y="1260" />
            </Array>
          </mxGeometry>
        </mxCell>
        <mxCell id="5e5JNWEMtE15wkdzbp1a-6" value="Initiate LoRa Radio&lt;br style=&quot;font-size: 14px;&quot;&gt;in Listening mode&lt;div style=&quot;font-size: 14px;&quot;&gt;using&lt;/div&gt;&lt;div style=&quot;font-size: 14px;&quot;&gt;Preconfigured Parameters&lt;br&gt;&lt;/div&gt;" style="rounded=1;whiteSpace=wrap;html=1;arcSize=0;fillColor=#dae8fc;strokeColor=#6c8ebf;fontStyle=0;fontSize=14;strokeWidth=2;" vertex="1" parent="1">
          <mxGeometry x="150" y="1166" width="170" height="71" as="geometry" />
        </mxCell>
        <mxCell id="5e5JNWEMtE15wkdzbp1a-7" value="" style="edgeStyle=orthogonalEdgeStyle;rounded=1;orthogonalLoop=1;jettySize=auto;html=1;strokeColor=default;align=center;verticalAlign=middle;fontFamily=Helvetica;fontSize=11;fontColor=default;labelBackgroundColor=default;endArrow=classic;strokeWidth=2;" edge="1" parent="1" source="5e5JNWEMtE15wkdzbp1a-8" target="5e5JNWEMtE15wkdzbp1a-6">
          <mxGeometry relative="1" as="geometry">
            <mxPoint x="239.75334448160538" y="1128" as="sourcePoint" />
            <mxPoint x="239.75" y="1149" as="targetPoint" />
            <Array as="points">
              <mxPoint x="235" y="1140" />
              <mxPoint x="235" y="1140" />
            </Array>
          </mxGeometry>
        </mxCell>
        <mxCell id="5e5JNWEMtE15wkdzbp1a-8" value="Start" style="rounded=1;whiteSpace=wrap;html=1;arcSize=50;fontStyle=0;fontSize=14;strokeWidth=2;" vertex="1" parent="1">
          <mxGeometry x="175" y="1060" width="120" height="60" as="geometry" />
        </mxCell>
        <mxCell id="5e5JNWEMtE15wkdzbp1a-63" style="edgeStyle=orthogonalEdgeStyle;shape=connector;rounded=1;orthogonalLoop=1;jettySize=auto;html=1;exitX=0.5;exitY=1;exitDx=0;exitDy=0;entryX=0.5;entryY=0;entryDx=0;entryDy=0;strokeColor=default;strokeWidth=2;align=center;verticalAlign=middle;fontFamily=Helvetica;fontSize=11;fontColor=default;fontStyle=0;labelBackgroundColor=default;endArrow=classic;" edge="1" parent="1" source="5e5JNWEMtE15wkdzbp1a-9" target="5e5JNWEMtE15wkdzbp1a-62">
          <mxGeometry relative="1" as="geometry" />
        </mxCell>
        <mxCell id="5e5JNWEMtE15wkdzbp1a-9" value="Packet&amp;nbsp;&lt;div&gt;Received?&lt;/div&gt;" style="rhombus;whiteSpace=wrap;html=1;rounded=1;fillColor=#f8cecc;strokeColor=#b85450;fontStyle=0;fontSize=14;strokeWidth=2;" vertex="1" parent="1">
          <mxGeometry x="175" y="1279" width="120" height="120" as="geometry" />
        </mxCell>
        <mxCell id="5e5JNWEMtE15wkdzbp1a-10" value="" style="edgeStyle=orthogonalEdgeStyle;rounded=1;orthogonalLoop=1;jettySize=auto;html=1;strokeWidth=2;curved=0;exitX=1;exitY=0.5;exitDx=0;exitDy=0;fontStyle=0" edge="1" parent="1" source="5e5JNWEMtE15wkdzbp1a-9" target="5e5JNWEMtE15wkdzbp1a-13">
          <mxGeometry relative="1" as="geometry">
            <mxPoint x="407" y="1358" as="sourcePoint" />
          </mxGeometry>
        </mxCell>
        <mxCell id="5e5JNWEMtE15wkdzbp1a-11" style="edgeStyle=orthogonalEdgeStyle;rounded=1;orthogonalLoop=1;jettySize=auto;html=1;exitX=0.5;exitY=0;exitDx=0;exitDy=0;entryX=0.5;entryY=1;entryDx=0;entryDy=0;curved=0;strokeWidth=2;fontStyle=0" edge="1" parent="1" source="5e5JNWEMtE15wkdzbp1a-13" target="5e5JNWEMtE15wkdzbp1a-15">
          <mxGeometry relative="1" as="geometry">
            <mxPoint x="500.0000000000002" y="1323.7600000000002" as="sourcePoint" />
          </mxGeometry>
        </mxCell>
        <mxCell id="5e5JNWEMtE15wkdzbp1a-12" style="edgeStyle=orthogonalEdgeStyle;shape=connector;rounded=1;orthogonalLoop=1;jettySize=auto;html=1;exitX=1;exitY=0.5;exitDx=0;exitDy=0;strokeColor=default;strokeWidth=2;align=center;verticalAlign=middle;fontFamily=Helvetica;fontSize=11;fontColor=default;fontStyle=1;labelBackgroundColor=default;endArrow=classic;flowAnimation=0;curved=0;" edge="1" parent="1" source="5e5JNWEMtE15wkdzbp1a-13">
          <mxGeometry relative="1" as="geometry">
            <Array as="points">
              <mxPoint x="713.5" y="1380" />
              <mxPoint x="713.5" y="1180" />
            </Array>
            <mxPoint x="322" y="1180" as="targetPoint" />
          </mxGeometry>
        </mxCell>
        <mxCell id="5e5JNWEMtE15wkdzbp1a-13" value="Scheduled&lt;br style=&quot;font-size: 14px;&quot;&gt;conditions met?" style="rhombus;whiteSpace=wrap;html=1;rounded=1;fillColor=#f8cecc;strokeColor=#b85450;fontStyle=0;fontSize=14;strokeWidth=2;" vertex="1" parent="1">
          <mxGeometry x="573.5" y="1319" width="127" height="121" as="geometry" />
        </mxCell>
        <mxCell id="5e5JNWEMtE15wkdzbp1a-38" style="edgeStyle=orthogonalEdgeStyle;shape=connector;rounded=1;orthogonalLoop=1;jettySize=auto;html=1;entryX=1;entryY=0.75;entryDx=0;entryDy=0;strokeColor=default;strokeWidth=2;align=center;verticalAlign=middle;fontFamily=Helvetica;fontSize=11;fontColor=default;fontStyle=0;labelBackgroundColor=default;endArrow=classic;" edge="1" parent="1" source="5e5JNWEMtE15wkdzbp1a-15" target="5e5JNWEMtE15wkdzbp1a-6">
          <mxGeometry relative="1" as="geometry" />
        </mxCell>
        <mxCell id="5e5JNWEMtE15wkdzbp1a-15" value="Transmit the&lt;br style=&quot;font-size: 14px;&quot;&gt;Scheduled&lt;br style=&quot;font-size: 14px;&quot;&gt;packet" style="rounded=0;whiteSpace=wrap;html=1;fontStyle=0;fontSize=14;strokeWidth=2;" vertex="1" parent="1">
          <mxGeometry x="463.5" y="1189" width="120" height="60" as="geometry" />
        </mxCell>
        <mxCell id="5e5JNWEMtE15wkdzbp1a-16" value="Yes" style="edgeLabel;html=1;align=center;verticalAlign=middle;resizable=0;points=[];fontStyle=1;fontColor=#66CC00;fontSize=15;labelBackgroundColor=none;" vertex="1" connectable="0" parent="1">
          <mxGeometry x="418.5014814814813" y="1236.997037037037" as="geometry">
            <mxPoint x="-16" as="offset" />
          </mxGeometry>
        </mxCell>
        <mxCell id="5e5JNWEMtE15wkdzbp1a-17" value="&lt;b&gt;No&lt;/b&gt;" style="edgeLabel;html=1;align=center;verticalAlign=middle;resizable=0;points=[];rounded=1;fontStyle=0;fontColor=#CC0000;fontSize=15;labelBackgroundColor=none;" connectable="0" vertex="1" parent="1">
          <mxGeometry x="189.99858434111752" y="1339.9951909100428" as="geometry">
            <mxPoint x="149" y="-15" as="offset" />
          </mxGeometry>
        </mxCell>
        <mxCell id="5e5JNWEMtE15wkdzbp1a-18" value="&lt;b&gt;No&lt;/b&gt;" style="edgeLabel;html=1;align=center;verticalAlign=middle;resizable=0;points=[];rounded=1;fontStyle=0;fontColor=#CC0000;fontSize=15;labelBackgroundColor=none;" connectable="0" vertex="1" parent="1">
          <mxGeometry x="531.4985843411175" y="1289.9951909100428" as="geometry">
            <mxPoint x="149" y="-15" as="offset" />
          </mxGeometry>
        </mxCell>
        <mxCell id="5e5JNWEMtE15wkdzbp1a-39" style="edgeStyle=orthogonalEdgeStyle;shape=connector;rounded=1;orthogonalLoop=1;jettySize=auto;html=1;strokeColor=default;strokeWidth=2;align=center;verticalAlign=middle;fontFamily=Helvetica;fontSize=11;fontColor=default;labelBackgroundColor=default;endArrow=classic;entryX=0.503;entryY=0.043;entryDx=0;entryDy=0;entryPerimeter=0;" edge="1" parent="1" source="5e5JNWEMtE15wkdzbp1a-41" target="5e5JNWEMtE15wkdzbp1a-50">
          <mxGeometry relative="1" as="geometry">
            <mxPoint x="312.5" y="2934" as="targetPoint" />
          </mxGeometry>
        </mxCell>
        <mxCell id="5e5JNWEMtE15wkdzbp1a-40" style="edgeStyle=orthogonalEdgeStyle;shape=connector;rounded=1;orthogonalLoop=1;jettySize=auto;html=1;entryX=0;entryY=0.5;entryDx=0;entryDy=0;strokeColor=default;strokeWidth=2;align=center;verticalAlign=middle;fontFamily=Helvetica;fontSize=11;fontColor=default;labelBackgroundColor=default;endArrow=classic;" edge="1" parent="1" source="5e5JNWEMtE15wkdzbp1a-41" target="5e5JNWEMtE15wkdzbp1a-43">
          <mxGeometry relative="1" as="geometry" />
        </mxCell>
        <mxCell id="5e5JNWEMtE15wkdzbp1a-41" value="&lt;div&gt;Packet&amp;nbsp;&lt;/div&gt;&lt;div&gt;Correct?&lt;/div&gt;" style="rhombus;whiteSpace=wrap;html=1;rounded=1;fillColor=#f8cecc;strokeColor=#b85450;fontStyle=0;fontSize=14;strokeWidth=2;" vertex="1" parent="1">
          <mxGeometry x="257.5" y="2760" width="120" height="120" as="geometry" />
        </mxCell>
        <mxCell id="5e5JNWEMtE15wkdzbp1a-42" style="edgeStyle=orthogonalEdgeStyle;shape=connector;rounded=1;orthogonalLoop=1;jettySize=auto;html=1;strokeColor=default;strokeWidth=2;align=center;verticalAlign=middle;fontFamily=Helvetica;fontSize=11;fontColor=default;labelBackgroundColor=default;endArrow=classic;" edge="1" parent="1" source="5e5JNWEMtE15wkdzbp1a-43">
          <mxGeometry relative="1" as="geometry">
            <mxPoint x="632.5" y="2884" as="targetPoint" />
          </mxGeometry>
        </mxCell>
        <mxCell id="5e5JNWEMtE15wkdzbp1a-43" value="Discard packet" style="rounded=0;whiteSpace=wrap;html=1;fontStyle=0;fontSize=14;strokeWidth=2;" vertex="1" parent="1">
          <mxGeometry x="437.5" y="2854" width="97" height="60" as="geometry" />
        </mxCell>
        <mxCell id="5e5JNWEMtE15wkdzbp1a-44" value="No" style="edgeLabel;html=1;align=center;verticalAlign=middle;resizable=0;points=[];rounded=1;fontStyle=1;fontColor=#CC0000;fontSize=15;labelBackgroundColor=none;" vertex="1" connectable="0" parent="1">
          <mxGeometry x="402.4985843411175" y="2803.9951909100428" as="geometry">
            <mxPoint x="-7" y="2" as="offset" />
          </mxGeometry>
        </mxCell>
        <mxCell id="5e5JNWEMtE15wkdzbp1a-45" value="Configuration&amp;nbsp;&lt;div style=&quot;font-size: 15px;&quot;&gt;packet&lt;/div&gt;" style="edgeLabel;html=1;align=left;verticalAlign=middle;resizable=0;points=[];rounded=1;labelBackgroundColor=none;fontColor=#0000CC;fontStyle=0;fontSize=15;" vertex="1" connectable="0" parent="1">
          <mxGeometry x="325.4950472955958" y="3104.0041052778533" as="geometry" />
        </mxCell>
        <mxCell id="5e5JNWEMtE15wkdzbp1a-46" style="edgeStyle=orthogonalEdgeStyle;shape=connector;rounded=1;orthogonalLoop=1;jettySize=auto;html=1;strokeColor=default;strokeWidth=2;align=center;verticalAlign=middle;fontFamily=Helvetica;fontSize=11;fontColor=default;labelBackgroundColor=default;endArrow=classic;" edge="1" parent="1" source="5e5JNWEMtE15wkdzbp1a-47" target="5e5JNWEMtE15wkdzbp1a-52">
          <mxGeometry relative="1" as="geometry">
            <mxPoint x="632.5" y="3074" as="targetPoint" />
            <Array as="points">
              <mxPoint x="634.5" y="3144" />
            </Array>
          </mxGeometry>
        </mxCell>
        <mxCell id="5e5JNWEMtE15wkdzbp1a-47" value="Configuration&lt;div style=&quot;font-size: 14px;&quot;&gt;parameters&lt;/div&gt;" style="rounded=0;whiteSpace=wrap;html=1;fontStyle=0;fontSize=14;strokeWidth=2;" vertex="1" parent="1">
          <mxGeometry x="397.5" y="3114" width="120" height="60" as="geometry" />
        </mxCell>
        <mxCell id="5e5JNWEMtE15wkdzbp1a-48" style="edgeStyle=orthogonalEdgeStyle;shape=connector;rounded=1;orthogonalLoop=1;jettySize=auto;html=1;exitX=0.5;exitY=1;exitDx=0;exitDy=0;entryX=0;entryY=0.5;entryDx=0;entryDy=0;strokeColor=default;strokeWidth=2;align=center;verticalAlign=middle;fontFamily=Helvetica;fontSize=11;fontColor=default;labelBackgroundColor=default;endArrow=classic;" edge="1" parent="1" source="5e5JNWEMtE15wkdzbp1a-50" target="5e5JNWEMtE15wkdzbp1a-47">
          <mxGeometry relative="1" as="geometry" />
        </mxCell>
        <mxCell id="5e5JNWEMtE15wkdzbp1a-49" style="edgeStyle=orthogonalEdgeStyle;shape=connector;rounded=1;orthogonalLoop=1;jettySize=auto;html=1;entryX=0;entryY=0.5;entryDx=0;entryDy=0;strokeColor=default;strokeWidth=2;align=center;verticalAlign=middle;fontFamily=Helvetica;fontSize=11;fontColor=default;labelBackgroundColor=default;endArrow=classic;" edge="1" parent="1" source="5e5JNWEMtE15wkdzbp1a-50" target="5e5JNWEMtE15wkdzbp1a-52">
          <mxGeometry relative="1" as="geometry" />
        </mxCell>
        <mxCell id="5e5JNWEMtE15wkdzbp1a-50" value="What is the&amp;nbsp;&lt;div style=&quot;font-size: 14px;&quot;&gt;Packet type?&lt;/div&gt;" style="rhombus;whiteSpace=wrap;html=1;rounded=1;fillColor=#f8cecc;strokeColor=#b85450;fontStyle=0;fontSize=14;strokeWidth=2;" vertex="1" parent="1">
          <mxGeometry x="257.5" y="2934" width="120" height="120" as="geometry" />
        </mxCell>
        <mxCell id="5e5JNWEMtE15wkdzbp1a-51" style="edgeStyle=orthogonalEdgeStyle;shape=connector;rounded=1;orthogonalLoop=1;jettySize=auto;html=1;strokeColor=default;strokeWidth=2;align=center;verticalAlign=middle;fontFamily=Helvetica;fontSize=11;fontColor=default;labelBackgroundColor=default;endArrow=classic;" edge="1" parent="1" source="5e5JNWEMtE15wkdzbp1a-52">
          <mxGeometry relative="1" as="geometry">
            <mxPoint x="673" y="2825" as="targetPoint" />
          </mxGeometry>
        </mxCell>
        <mxCell id="5e5JNWEMtE15wkdzbp1a-52" value="Schedule a packet" style="rounded=0;whiteSpace=wrap;html=1;fontStyle=0;fontSize=14;strokeWidth=2;" vertex="1" parent="1">
          <mxGeometry x="585.5" y="2964" width="97" height="60" as="geometry" />
        </mxCell>
        <mxCell id="5e5JNWEMtE15wkdzbp1a-53" value="Warning Message" style="edgeLabel;html=1;align=center;verticalAlign=middle;resizable=0;points=[];rounded=1;labelBackgroundColor=none;fontColor=#0000CC;fontStyle=0;fontSize=15;" vertex="1" connectable="0" parent="1">
          <mxGeometry x="442.5" y="3013.9950016777766" as="geometry" />
        </mxCell>
        <mxCell id="5e5JNWEMtE15wkdzbp1a-54" value="Health Check or" style="edgeLabel;html=1;align=center;verticalAlign=middle;resizable=0;points=[];rounded=1;labelBackgroundColor=none;fontColor=#0000CC;fontStyle=0;fontSize=15;" vertex="1" connectable="0" parent="1">
          <mxGeometry x="437.50428428546843" y="2984.00261788796" as="geometry" />
        </mxCell>
        <mxCell id="5e5JNWEMtE15wkdzbp1a-55" value="Yes" style="edgeLabel;html=1;align=center;verticalAlign=middle;resizable=0;points=[];rounded=1;fontStyle=1;fontColor=#66CC00;fontSize=15;labelBackgroundColor=none;" vertex="1" connectable="0" parent="1">
          <mxGeometry x="292.5" y="2904" as="geometry">
            <mxPoint x="7" y="-1" as="offset" />
          </mxGeometry>
        </mxCell>
        <mxCell id="5e5JNWEMtE15wkdzbp1a-65" style="edgeStyle=orthogonalEdgeStyle;shape=connector;rounded=1;orthogonalLoop=1;jettySize=auto;html=1;entryX=0;entryY=0.5;entryDx=0;entryDy=0;strokeColor=default;strokeWidth=2;align=center;verticalAlign=middle;fontFamily=Helvetica;fontSize=11;fontColor=default;fontStyle=0;labelBackgroundColor=default;endArrow=classic;" edge="1" parent="1" source="5e5JNWEMtE15wkdzbp1a-56" target="5e5JNWEMtE15wkdzbp1a-60">
          <mxGeometry relative="1" as="geometry" />
        </mxCell>
        <mxCell id="5e5JNWEMtE15wkdzbp1a-56" value="&lt;div&gt;Is&amp;nbsp;&lt;/div&gt;&lt;div&gt;this a duplicate&lt;/div&gt;&lt;div&gt;packet?&lt;br&gt;&lt;/div&gt;" style="rhombus;whiteSpace=wrap;html=1;rounded=1;fillColor=#f8cecc;strokeColor=#b85450;fontStyle=0;fontSize=14;strokeWidth=2;" vertex="1" parent="1">
          <mxGeometry x="343.5" y="1560" width="120" height="120" as="geometry" />
        </mxCell>
        <mxCell id="5e5JNWEMtE15wkdzbp1a-76" style="edgeStyle=orthogonalEdgeStyle;shape=connector;rounded=1;orthogonalLoop=1;jettySize=auto;html=1;entryX=0;entryY=0.5;entryDx=0;entryDy=0;strokeColor=default;strokeWidth=2;align=center;verticalAlign=middle;fontFamily=Helvetica;fontSize=11;fontColor=default;fontStyle=0;labelBackgroundColor=default;endArrow=classic;" edge="1" parent="1" source="5e5JNWEMtE15wkdzbp1a-60" target="5e5JNWEMtE15wkdzbp1a-72">
          <mxGeometry relative="1" as="geometry" />
        </mxCell>
        <mxCell id="5e5JNWEMtE15wkdzbp1a-91" style="edgeStyle=orthogonalEdgeStyle;shape=connector;rounded=1;orthogonalLoop=1;jettySize=auto;html=1;exitX=0.5;exitY=0;exitDx=0;exitDy=0;entryX=1;entryY=1;entryDx=0;entryDy=0;strokeColor=default;strokeWidth=2;align=center;verticalAlign=middle;fontFamily=Helvetica;fontSize=11;fontColor=default;fontStyle=0;labelBackgroundColor=default;endArrow=classic;" edge="1" parent="1" source="5e5JNWEMtE15wkdzbp1a-60" target="5e5JNWEMtE15wkdzbp1a-66">
          <mxGeometry relative="1" as="geometry" />
        </mxCell>
        <mxCell id="5e5JNWEMtE15wkdzbp1a-60" value="TTL &amp;gt;=1 " style="rhombus;whiteSpace=wrap;html=1;rounded=1;fillColor=#f8cecc;strokeColor=#b85450;fontStyle=0;fontSize=14;strokeWidth=2;" vertex="1" parent="1">
          <mxGeometry x="507" y="1560" width="120" height="120" as="geometry" />
        </mxCell>
        <mxCell id="5e5JNWEMtE15wkdzbp1a-64" style="edgeStyle=orthogonalEdgeStyle;shape=connector;rounded=1;orthogonalLoop=1;jettySize=auto;html=1;exitX=0.5;exitY=1;exitDx=0;exitDy=0;strokeColor=default;strokeWidth=2;align=center;verticalAlign=middle;fontFamily=Helvetica;fontSize=11;fontColor=default;fontStyle=0;labelBackgroundColor=default;endArrow=classic;entryX=0;entryY=0.5;entryDx=0;entryDy=0;" edge="1" parent="1" source="5e5JNWEMtE15wkdzbp1a-62" target="5e5JNWEMtE15wkdzbp1a-56">
          <mxGeometry relative="1" as="geometry">
            <Array as="points">
              <mxPoint x="235.5" y="1620" />
            </Array>
          </mxGeometry>
        </mxCell>
        <mxCell id="5e5JNWEMtE15wkdzbp1a-80" style="edgeStyle=orthogonalEdgeStyle;shape=connector;rounded=1;orthogonalLoop=1;jettySize=auto;html=1;entryX=0;entryY=0.5;entryDx=0;entryDy=0;strokeColor=default;strokeWidth=2;align=center;verticalAlign=middle;fontFamily=Helvetica;fontSize=11;fontColor=default;fontStyle=0;labelBackgroundColor=default;endArrow=classic;" edge="1" parent="1" source="5e5JNWEMtE15wkdzbp1a-62" target="5e5JNWEMtE15wkdzbp1a-66">
          <mxGeometry relative="1" as="geometry" />
        </mxCell>
        <mxCell id="5e5JNWEMtE15wkdzbp1a-62" value="&lt;div&gt;Packet&amp;nbsp;&lt;/div&gt;&lt;div&gt;Correct?&lt;/div&gt;" style="rhombus;whiteSpace=wrap;html=1;rounded=1;fillColor=#f8cecc;strokeColor=#b85450;fontStyle=0;fontSize=14;strokeWidth=2;" vertex="1" parent="1">
          <mxGeometry x="175" y="1470" width="120" height="120" as="geometry" />
        </mxCell>
        <mxCell id="5e5JNWEMtE15wkdzbp1a-83" style="edgeStyle=orthogonalEdgeStyle;shape=connector;rounded=1;orthogonalLoop=1;jettySize=auto;html=1;strokeColor=default;strokeWidth=2;align=center;verticalAlign=middle;fontFamily=Helvetica;fontSize=11;fontColor=default;fontStyle=0;labelBackgroundColor=default;endArrow=classic;entryX=0;entryY=1;entryDx=0;entryDy=0;" edge="1" parent="1" source="5e5JNWEMtE15wkdzbp1a-66" target="5e5JNWEMtE15wkdzbp1a-13">
          <mxGeometry relative="1" as="geometry">
            <mxPoint x="633.5" y="1470" as="targetPoint" />
            <Array as="points">
              <mxPoint x="605.5" y="1470" />
            </Array>
          </mxGeometry>
        </mxCell>
        <mxCell id="5e5JNWEMtE15wkdzbp1a-66" value="Discard packet" style="rounded=0;whiteSpace=wrap;html=1;fontStyle=0;fontSize=14;strokeWidth=2;" vertex="1" parent="1">
          <mxGeometry x="361.5" y="1440" width="97" height="60" as="geometry" />
        </mxCell>
        <mxCell id="5e5JNWEMtE15wkdzbp1a-67" value="Configuration&amp;nbsp;&lt;div style=&quot;font-size: 15px;&quot;&gt;packet&lt;/div&gt;" style="edgeLabel;html=1;align=left;verticalAlign=middle;resizable=0;points=[];rounded=1;labelBackgroundColor=none;fontColor=#0000CC;fontStyle=0;fontSize=15;" vertex="1" connectable="0" parent="1">
          <mxGeometry x="623.4950472955958" y="1750.0041052778533" as="geometry" />
        </mxCell>
        <mxCell id="5e5JNWEMtE15wkdzbp1a-68" style="edgeStyle=orthogonalEdgeStyle;shape=connector;rounded=1;orthogonalLoop=1;jettySize=auto;html=1;strokeColor=default;strokeWidth=2;align=center;verticalAlign=middle;fontFamily=Helvetica;fontSize=11;fontColor=default;labelBackgroundColor=default;endArrow=classic;entryX=0.5;entryY=1;entryDx=0;entryDy=0;" edge="1" parent="1" source="5e5JNWEMtE15wkdzbp1a-69" target="5e5JNWEMtE15wkdzbp1a-73">
          <mxGeometry relative="1" as="geometry">
            <mxPoint x="1060.5" y="1660" as="targetPoint" />
            <Array as="points">
              <mxPoint x="903.5" y="1770" />
              <mxPoint x="903.5" y="1690" />
              <mxPoint x="902.5" y="1690" />
            </Array>
          </mxGeometry>
        </mxCell>
        <mxCell id="5e5JNWEMtE15wkdzbp1a-69" value="Configuration&lt;div style=&quot;font-size: 14px;&quot;&gt;parameters&lt;/div&gt;" style="rounded=0;whiteSpace=wrap;html=1;fontStyle=0;fontSize=14;strokeWidth=2;" vertex="1" parent="1">
          <mxGeometry x="763.5" y="1750" width="120" height="60" as="geometry" />
        </mxCell>
        <mxCell id="5e5JNWEMtE15wkdzbp1a-70" style="edgeStyle=orthogonalEdgeStyle;shape=connector;rounded=1;orthogonalLoop=1;jettySize=auto;html=1;exitX=0.5;exitY=1;exitDx=0;exitDy=0;entryX=0;entryY=0.5;entryDx=0;entryDy=0;strokeColor=default;strokeWidth=2;align=center;verticalAlign=middle;fontFamily=Helvetica;fontSize=11;fontColor=default;labelBackgroundColor=default;endArrow=classic;" edge="1" parent="1" source="5e5JNWEMtE15wkdzbp1a-72" target="5e5JNWEMtE15wkdzbp1a-69">
          <mxGeometry relative="1" as="geometry" />
        </mxCell>
        <mxCell id="5e5JNWEMtE15wkdzbp1a-71" style="edgeStyle=orthogonalEdgeStyle;shape=connector;rounded=1;orthogonalLoop=1;jettySize=auto;html=1;entryX=0;entryY=0.5;entryDx=0;entryDy=0;strokeColor=default;strokeWidth=2;align=center;verticalAlign=middle;fontFamily=Helvetica;fontSize=11;fontColor=default;labelBackgroundColor=default;endArrow=classic;" edge="1" parent="1" source="5e5JNWEMtE15wkdzbp1a-72" target="5e5JNWEMtE15wkdzbp1a-73">
          <mxGeometry relative="1" as="geometry" />
        </mxCell>
        <mxCell id="5e5JNWEMtE15wkdzbp1a-72" value="What is the&amp;nbsp;&lt;div style=&quot;font-size: 14px;&quot;&gt;Packet type?&lt;/div&gt;" style="rhombus;whiteSpace=wrap;html=1;rounded=1;fillColor=#f8cecc;strokeColor=#b85450;fontStyle=0;fontSize=14;strokeWidth=2;" vertex="1" parent="1">
          <mxGeometry x="673.5" y="1610" width="120" height="120" as="geometry" />
        </mxCell>
        <mxCell id="5e5JNWEMtE15wkdzbp1a-85" style="edgeStyle=orthogonalEdgeStyle;shape=connector;rounded=1;orthogonalLoop=1;jettySize=auto;html=1;entryX=1;entryY=1;entryDx=0;entryDy=0;strokeColor=default;strokeWidth=2;align=center;verticalAlign=middle;fontFamily=Helvetica;fontSize=11;fontColor=default;fontStyle=0;labelBackgroundColor=default;endArrow=classic;" edge="1" parent="1" source="5e5JNWEMtE15wkdzbp1a-73" target="5e5JNWEMtE15wkdzbp1a-13">
          <mxGeometry relative="1" as="geometry">
            <Array as="points">
              <mxPoint x="902.5" y="1470" />
              <mxPoint x="668.5" y="1470" />
            </Array>
          </mxGeometry>
        </mxCell>
        <mxCell id="5e5JNWEMtE15wkdzbp1a-73" value="Schedule a packet" style="rounded=0;whiteSpace=wrap;html=1;fontStyle=0;fontSize=14;strokeWidth=2;" vertex="1" parent="1">
          <mxGeometry x="853.5" y="1570" width="97" height="60" as="geometry" />
        </mxCell>
        <mxCell id="5e5JNWEMtE15wkdzbp1a-77" value="" style="group" vertex="1" connectable="0" parent="1">
          <mxGeometry x="763.5" y="1560.0026178879598" width="0.004284285468429516" height="29.992383789816813" as="geometry" />
        </mxCell>
        <mxCell id="5e5JNWEMtE15wkdzbp1a-74" value="Warning Message" style="edgeLabel;html=1;align=center;verticalAlign=middle;resizable=0;points=[];rounded=1;labelBackgroundColor=none;fontColor=#0000CC;fontStyle=0;fontSize=15;" vertex="1" connectable="0" parent="5e5JNWEMtE15wkdzbp1a-77">
          <mxGeometry y="29.992383789816813" as="geometry" />
        </mxCell>
        <mxCell id="5e5JNWEMtE15wkdzbp1a-75" value="Health Check or" style="edgeLabel;html=1;align=center;verticalAlign=middle;resizable=0;points=[];rounded=1;labelBackgroundColor=none;fontColor=#0000CC;fontStyle=0;fontSize=15;" vertex="1" connectable="0" parent="5e5JNWEMtE15wkdzbp1a-77">
          <mxGeometry x="0.004284285468429516" as="geometry" />
        </mxCell>
        <mxCell id="5e5JNWEMtE15wkdzbp1a-81" style="edgeStyle=orthogonalEdgeStyle;shape=connector;rounded=1;orthogonalLoop=1;jettySize=auto;html=1;entryX=0.433;entryY=1;entryDx=0;entryDy=0;entryPerimeter=0;strokeColor=default;strokeWidth=2;align=center;verticalAlign=middle;fontFamily=Helvetica;fontSize=11;fontColor=default;fontStyle=0;labelBackgroundColor=default;endArrow=classic;" edge="1" parent="1" source="5e5JNWEMtE15wkdzbp1a-56" target="5e5JNWEMtE15wkdzbp1a-66">
          <mxGeometry relative="1" as="geometry" />
        </mxCell>
        <mxCell id="5e5JNWEMtE15wkdzbp1a-86" value="Yes" style="edgeLabel;html=1;align=center;verticalAlign=middle;resizable=0;points=[];fontStyle=1;fontColor=#66CC00;fontSize=15;labelBackgroundColor=none;" vertex="1" connectable="0" parent="1">
          <mxGeometry x="763.5014814814813" y="1269.997037037037" as="geometry">
            <mxPoint x="-199" y="-3" as="offset" />
          </mxGeometry>
        </mxCell>
        <mxCell id="5e5JNWEMtE15wkdzbp1a-87" value="Yes" style="edgeLabel;html=1;align=center;verticalAlign=middle;resizable=0;points=[];fontStyle=1;fontColor=#66CC00;fontSize=15;labelBackgroundColor=none;" vertex="1" connectable="0" parent="1">
          <mxGeometry x="398.5014814814813" y="1529.997037037037" as="geometry">
            <mxPoint x="-16" as="offset" />
          </mxGeometry>
        </mxCell>
        <mxCell id="5e5JNWEMtE15wkdzbp1a-88" value="Yes" style="edgeLabel;html=1;align=center;verticalAlign=middle;resizable=0;points=[];fontStyle=1;fontColor=#66CC00;fontSize=15;labelBackgroundColor=none;" vertex="1" connectable="0" parent="1">
          <mxGeometry x="286.4914814814813" y="1599.997037037037" as="geometry">
            <mxPoint x="-16" as="offset" />
          </mxGeometry>
        </mxCell>
        <mxCell id="5e5JNWEMtE15wkdzbp1a-89" value="Yes" style="edgeLabel;html=1;align=center;verticalAlign=middle;resizable=0;points=[];fontStyle=1;fontColor=#66CC00;fontSize=15;labelBackgroundColor=none;" vertex="1" connectable="0" parent="1">
          <mxGeometry x="226.50148148148128" y="1419.997037037037" as="geometry">
            <mxPoint x="-16" as="offset" />
          </mxGeometry>
        </mxCell>
        <mxCell id="5e5JNWEMtE15wkdzbp1a-90" value="Yes" style="edgeLabel;html=1;align=center;verticalAlign=middle;resizable=0;points=[];fontStyle=1;fontColor=#66CC00;fontSize=15;labelBackgroundColor=none;" vertex="1" connectable="0" parent="1">
          <mxGeometry x="658.5014814814813" y="1599.997037037037" as="geometry">
            <mxPoint x="-16" as="offset" />
          </mxGeometry>
        </mxCell>
        <mxCell id="5e5JNWEMtE15wkdzbp1a-92" value="&lt;b&gt;No&lt;/b&gt;" style="edgeLabel;html=1;align=center;verticalAlign=middle;resizable=0;points=[];rounded=1;fontStyle=0;fontColor=#CC0000;fontSize=15;labelBackgroundColor=none;" connectable="0" vertex="1" parent="1">
          <mxGeometry x="149.99858434111752" y="1519.9951909100428" as="geometry">
            <mxPoint x="149" y="-15" as="offset" />
          </mxGeometry>
        </mxCell>
        <mxCell id="5e5JNWEMtE15wkdzbp1a-93" value="&lt;b&gt;No&lt;/b&gt;" style="edgeLabel;html=1;align=center;verticalAlign=middle;resizable=0;points=[];rounded=1;fontStyle=0;fontColor=#CC0000;fontSize=15;labelBackgroundColor=none;" connectable="0" vertex="1" parent="1">
          <mxGeometry x="333.4985843411175" y="1609.9951909100428" as="geometry">
            <mxPoint x="149" y="-15" as="offset" />
          </mxGeometry>
        </mxCell>
        <mxCell id="5e5JNWEMtE15wkdzbp1a-94" value="&lt;b&gt;No&lt;/b&gt;" style="edgeLabel;html=1;align=center;verticalAlign=middle;resizable=0;points=[];rounded=1;fontStyle=0;fontColor=#CC0000;fontSize=15;labelBackgroundColor=none;" connectable="0" vertex="1" parent="1">
          <mxGeometry x="375.9985843411175" y="1519.9951909100428" as="geometry">
            <mxPoint x="149" y="-15" as="offset" />
          </mxGeometry>
        </mxCell>
      </root>
    </mxGraphModel>
  </diagram>
</mxfile>
